<svg width="40" height="40" viewBox="0 0 40 40" fill="none" xmlns="http://www.w3.org/2000/svg">
<path d="M14.4359 32.8579C14.6993 32.7749 14.8455 32.4941 14.7626 32.2307C14.6796 31.9674 14.3989 31.8211 14.1355 31.9041L14.4359 32.8579ZM4.74599 26.564L4.26238 26.437L4.00844 27.4043L4.49205 27.5312L4.74599 26.564ZM25.2142 39.0476V39.5476H26.2142V39.0476H25.2142ZM24.7619 25.7143L24.7084 25.2171C24.5167 25.2378 24.3539 25.3668 24.2901 25.5487C24.2262 25.7307 24.2727 25.9331 24.4095 26.069L24.7619 25.7143ZM33.3333 15.7667H33.8333L33.8333 15.7651L33.3333 15.7667ZM31.1116 10.4167L30.6455 10.2357C30.5739 10.4202 30.6178 10.6296 30.7576 10.7697L31.1116 10.4167ZM30.9783 5.03833L31.4348 4.83445C31.3746 4.69952 31.2577 4.59816 31.1156 4.55757L30.9783 5.03833ZM25.1849 7.15L25.0588 7.63383C25.1944 7.66917 25.3386 7.64601 25.4562 7.57L25.1849 7.15ZM14.8149 7.15L14.5437 7.57005C14.6614 7.64602 14.8055 7.66916 14.9411 7.63383L14.8149 7.15ZM9.02161 5.03833L8.88413 4.5576C8.74211 4.59822 8.62531 4.69956 8.56507 4.83445L9.02161 5.03833ZM8.88828 10.4167L9.24231 10.7697C9.38209 10.6296 9.42603 10.4202 9.35436 10.2357L8.88828 10.4167ZM6.66661 15.81H7.16662L7.16661 15.8087L6.66661 15.81ZM15.2381 25.7143L15.591 26.0684C15.7267 25.9332 15.7732 25.7323 15.7107 25.5512C15.6482 25.3701 15.4877 25.2406 15.2975 25.2178L15.2381 25.7143ZM14.2857 29.7143H14.7857C14.7857 29.7021 14.7852 29.6898 14.7843 29.6777L14.2857 29.7143ZM13.7857 39.0476V39.5476H14.7857V39.0476H13.7857ZM14.1355 31.9041C12.4163 32.4455 11.2098 32.4211 10.3201 32.1275C9.43191 31.8344 8.79042 31.2504 8.24157 30.535C7.96595 30.1757 7.71861 29.7898 7.47487 29.3952C7.23558 29.0078 6.99286 28.6003 6.74389 28.2331C6.25178 27.5074 5.64852 26.801 4.74599 26.564L4.49205 27.5312C5.01785 27.6693 5.44418 28.0982 5.91623 28.7944C6.14934 29.1382 6.37236 29.5132 6.6241 29.9207C6.87141 30.3211 7.14042 30.7425 7.44814 31.1436C8.06595 31.949 8.85904 32.6984 10.0067 33.0771C11.1529 33.4554 12.5834 33.4414 14.4359 32.8579L14.1355 31.9041ZM26.2142 29.5476C26.2142 27.9421 26.2881 26.5256 25.1142 25.3596L24.4095 26.069C25.2323 26.8863 25.2142 27.8198 25.2142 29.5476H26.2142ZM24.8153 26.2114C27.1681 25.9585 29.4482 25.4052 31.1323 23.8405C32.8318 22.2615 33.8333 19.7418 33.8333 15.7667H32.8333C32.8333 19.5816 31.8749 21.7856 30.4516 23.1079C29.0129 24.4446 27.0073 24.97 24.7084 25.2171L24.8153 26.2114ZM33.8333 15.7651C33.8264 13.6268 32.9755 11.5778 31.4657 10.0636L30.7576 10.7697C32.0812 12.0972 32.8272 13.8936 32.8333 15.7683L33.8333 15.7651ZM31.5777 10.5977C31.9359 9.67527 32.1078 8.69099 32.0832 7.70176L31.0835 7.72654C31.1048 8.58364 30.9559 9.43645 30.6455 10.2357L31.5777 10.5977ZM32.0832 7.70176C32.0587 6.71253 31.8383 5.73797 31.4348 4.83445L30.5217 5.24222C30.8713 6.02506 31.0623 6.86944 31.0835 7.72654L32.0832 7.70176ZM30.9783 5.03833C31.1156 4.55757 31.1152 4.55743 31.1147 4.5573C31.1145 4.55725 31.114 4.55711 31.1137 4.55702C31.113 4.55683 31.1123 4.55663 31.1116 4.55643C31.1101 4.55602 31.1085 4.55559 31.1068 4.55514C31.1035 4.55423 31.0997 4.55323 31.0954 4.55216C31.0869 4.55002 31.0767 4.54757 31.0646 4.54494C31.0406 4.53967 31.0095 4.53364 30.9712 4.52775C30.8945 4.51597 30.7894 4.50478 30.655 4.50119C30.3859 4.49401 30.0012 4.51732 29.4934 4.62583C28.4785 4.84267 26.9741 5.3991 24.9137 6.72999L25.4562 7.57C27.4391 6.28923 28.8314 5.78983 29.7023 5.60375C30.1374 5.5108 30.443 5.49589 30.6283 5.50084C30.7211 5.50331 30.7844 5.51078 30.8192 5.51614C30.8367 5.51882 30.8471 5.52099 30.8506 5.52177C30.8524 5.52216 30.8525 5.5222 30.8508 5.52179C30.85 5.52159 30.8488 5.52127 30.8471 5.52082C30.8463 5.5206 30.8454 5.52035 30.8443 5.52006C30.8438 5.51991 30.8433 5.51976 30.8427 5.5196C30.8424 5.51952 30.842 5.51939 30.8418 5.51935C30.8414 5.51922 30.8409 5.51909 30.9783 5.03833ZM25.3111 6.66616C21.8285 5.75841 18.1714 5.75841 14.6888 6.66616L14.9411 7.63383C18.2582 6.76919 21.7417 6.76919 25.0588 7.63383L25.3111 6.66616ZM15.0862 6.72994C13.0249 5.39909 11.5206 4.84267 10.5059 4.62583C9.99817 4.51733 9.61365 4.494 9.34464 4.50119C9.21026 4.50478 9.10522 4.51597 9.0286 4.52776C8.99032 4.53365 8.9592 4.53968 8.93514 4.54496C8.92311 4.5476 8.91286 4.55004 8.90436 4.55219C8.90011 4.55326 8.8963 4.55426 8.89293 4.55517C8.89124 4.55562 8.88967 4.55605 8.8882 4.55646C8.88747 4.55666 8.88676 4.55686 8.88609 4.55705C8.88575 4.55715 8.88526 4.55728 8.88509 4.55733C8.88461 4.55747 8.88413 4.5576 9.02161 5.03833C9.1591 5.51906 9.15863 5.51919 9.15818 5.51932C9.15804 5.51936 9.15759 5.51949 9.1573 5.51957C9.15673 5.51973 9.15619 5.51988 9.15567 5.52003C9.15463 5.52031 9.15369 5.52057 9.15286 5.52079C9.15121 5.52124 9.14997 5.52156 9.14915 5.52176C9.14751 5.52218 9.14757 5.52214 9.14933 5.52175C9.15286 5.52098 9.16325 5.51881 9.18067 5.51613C9.21546 5.51078 9.27862 5.50331 9.37135 5.50084C9.55656 5.49589 9.86193 5.51079 10.2969 5.60375C11.1676 5.78982 12.56 6.28924 14.5437 7.57005L15.0862 6.72994ZM8.56507 4.83445C8.16157 5.73797 7.94118 6.71253 7.91666 7.70176L8.91635 7.72654C8.9376 6.86944 9.12855 6.02506 9.47816 5.24222L8.56507 4.83445ZM7.91666 7.70176C7.89213 8.69099 8.06396 9.67527 8.4222 10.5977L9.35436 10.2357C9.04398 9.43645 8.8951 8.58364 8.91635 7.72654L7.91666 7.70176ZM8.53425 10.0636C7.78101 10.8189 7.18416 11.7153 6.77788 12.7016L7.70251 13.0825C8.05869 12.2178 8.58194 11.4319 9.24231 10.7697L8.53425 10.0636ZM6.77788 12.7016C6.3716 13.6879 6.16388 14.7446 6.16662 15.8113L7.16661 15.8087C7.16422 14.8736 7.34633 13.9471 7.70251 13.0825L6.77788 12.7016ZM6.16661 15.81C6.16661 19.7582 7.16884 22.2532 8.86901 23.821C10.5517 25.3727 12.83 25.9297 15.1787 26.2107L15.2975 25.2178C12.9945 24.9422 10.987 24.4138 9.54692 23.0858C8.12428 21.774 7.16661 19.5952 7.16661 15.81H6.16661ZM14.8851 25.3601C14.2952 25.9481 14.0011 26.7168 13.8629 27.4831C13.7247 28.2497 13.7357 29.0519 13.787 29.7509L14.7843 29.6777C14.7357 29.0151 14.7303 28.308 14.8471 27.6605C14.9639 27.0126 15.1959 26.4622 15.591 26.0684L14.8851 25.3601ZM13.7857 29.7143V39.0476H14.7857V29.7143H13.7857ZM26.2142 39.0476V29.5476H25.2142V39.0476H26.2142Z" fill="#FFF1BD"/>
</svg>
