<svg width="40" height="40" viewBox="0 0 40 40" fill="none" xmlns="http://www.w3.org/2000/svg">
<path d="M30.4762 10.4762H32.381M8.57144 0.952393H31.4286C35.6365 0.952393 39.0476 4.36356 39.0476 8.57144V31.4286C39.0476 35.6365 35.6365 39.0476 31.4286 39.0476H8.57144C4.36356 39.0476 0.952393 35.6365 0.952393 31.4286V8.57144C0.952393 4.36356 4.36356 0.952393 8.57144 0.952393ZM20 27.6191C15.7921 27.6191 12.381 24.2079 12.381 20C12.381 15.7921 15.7921 12.381 20 12.381C24.2079 12.381 27.6191 15.7921 27.6191 20C27.6191 24.2079 24.2079 27.6191 20 27.6191Z" stroke="#FFF1BD"/>
</svg>
